<?xml version="1.0" standalone="no"?><!DOCTYPE svg PUBLIC "-//W3C//DTD SVG 1.1//EN" "http://www.w3.org/Graphics/SVG/1.1/DTD/svg11.dtd"><svg t="1637086994999" class="icon" viewBox="0 0 1024 1024" version="1.1" xmlns="http://www.w3.org/2000/svg" p-id="5008" xmlns:xlink="http://www.w3.org/1999/xlink" width="32" height="32"><defs><style type="text/css"></style></defs><path d="M329.295483 693.342628h-27.169153q-1.419688-68.968684-7.947366-129.686558h-0.234809l-41.358813 129.686558H231.918579l-41.095105-129.686558h-0.242034q-4.587797 58.344501-5.779902 129.686558H160.031044q2.409497-86.788845 12.01136-162.729536h33.660706l39.180512 119.571728h0.242034l39.422546-119.571728h32.208505q10.591671 88.934634 12.495426 162.729536h0.04335zM447.126016 573.294057q-16.599157 90.253174-43.757473 131.182108-21.15083 31.514917-46.398166 31.525754c-4.486649 0-10.010068-1.365502-16.588319-4.049544v-14.496717a79.990235 79.990235 0 0 0 11.306934 0.722487q11.780163 0 18.986979-6.50239 8.644566-7.947366 8.644566-17.841835 0-6.766098-6.733586-27.718244L342.780717 573.294057h26.685087l21.400088 69.40579q7.192366 23.628963 6.007486 33.042978 17.556453-47.023117 24.52846-102.45238h25.716953z m118.972063 74.950883q0 20.69205-15.136119 33.989438-15.146956 13.232364-40.611038 13.243201-23.842097 0-46.156133-15.201143l6.97562-13.969301q19.23985 9.634375 34.845586 9.634375 14.652052 0 22.967887-6.502391c5.523419-4.334927 8.821576-10.382149 8.821575-18.062194 0-9.656049-6.708299-17.928534-19.052002-24.860805-11.37557-6.271194-34.144773-19.337386-34.144773-19.337385-12.318417-9.031097-18.502912-18.676309-18.502912-34.62884q0-19.767266 13.813966-31.944797t35.705346-12.188369q22.60303 0 41.095106 12.054708l-6.271194 13.969302q-15.840545-6.733586-31.240372-6.733586-12.506264 0-19.229013 6.02916c-4.508324 4.002582-7.282677 9.150308-7.282676 15.421502 0 9.634375 6.863634 17.997171 19.536069 25.055876 11.527293 6.271194 34.823911 19.601094 34.823912 19.601094 12.672436 8.998585 18.986979 18.589611 18.986979 34.386806z m48.576466 12.538776q-9.865571-15.894731-9.854733-51.105174 0-61.443974 37.26592-61.465648 19.471046 0 28.621354 14.695402 9.833059 15.894731 9.854733 50.621106 0 61.938878-37.26592 61.97139-19.471046 0-28.599679-14.717076h-0.021675z m96.643579 36.485633l-29.831521-14.738751a55.248641 55.248641 0 0 0 7.456074-7.261002q19.008654-22.397121 19.008654-66.284642 0-80.748847-63.217681-80.759685-31.020013 0-48.334433 20.504204-19.008654 22.397121-18.986979 66.042608 0 42.897712 16.830353 62.917849 15.345641 18.083869 46.376491 18.083869 11.581479 0 21.251978-2.861051l38.851781 22.660829 10.580833-18.282553z m97.369679-3.915884H731.518882v-162.743986h25.958987v142.713012h51.191872v20.020137h0.021674z m18.524587-0.021674h4.313252v-16.577483h5.631792v-3.395692h-15.771908v3.388467H827.248514v16.566645h-0.021675z m32.735921 0h4.049544v-19.929826h-6.094184l-4.970716 13.59722-5.418659-13.59722h-5.873825v19.929826h3.829185v-15.172244h0.220359l5.653467 15.172244h2.926075l5.653467-15.172244v15.172244h0.021675z m-27.81578-193.475004c-14.254684-0.361244-25.308747 1.058445-34.563815 4.996003-2.68043 1.083732-6.935883 1.083732-7.315189 4.457749 1.444976 1.419688 1.60031 3.738874 2.857439 5.718491 2.138564 3.579927 5.855763 8.395308 9.255069 10.895116 3.738874 2.857439 7.477749 5.718491 11.415307 8.214686 6.935883 4.298802 14.811 6.79861 21.55181 11.0938 3.937558 2.499808 7.83538 5.718491 11.772939 8.395308 1.957942 1.419688 3.197008 3.756936 5.696816 4.638372v-0.538254c-1.260741-1.60031-1.60031-3.919496-2.839377-5.718491-1.780932-1.780932-3.558252-3.399305-5.357247-5.176625a84.740592 84.740592 0 0 0-18.531812-18.033295c-5.696816-3.937558-18.192242-9.294805-20.489753-15.894731l-0.361244-0.361244c3.919496-0.361244 8.557868-1.806219 12.282292-2.889951 6.05806-1.60031 11.559805-1.239067 17.812936-2.839377 2.857439-0.722488 5.696816-1.618373 8.57593-2.499808v-1.618372c-3.218683-3.218683-5.537869-7.495811-8.915499-10.533872-9.074447-7.857055-19.070065-15.533487-29.405253-21.970854-5.537869-3.579927-12.643536-5.877438-18.531811-8.937174-2.120502-1.083732-5.696816-1.60031-6.935883-3.399305-3.218683-3.937558-4.996003-9.096121-7.315189-13.752555-5.158563-9.814997-10.154566-20.710112-14.612315-31.085037-3.197008-6.957557-5.158563-13.933177-9.096122-20.370543-18.372864-30.387836-38.291853-48.767925-68.950621-66.808445-6.596313-3.756936-14.449756-5.357247-22.80894-7.336864-4.45775-0.180622-8.915499-0.538253-13.366024-0.700813-2.857439-1.260741-5.718491-4.656434-8.196624-6.256744-10.154566-6.437366-36.344748-20.370543-43.840558-1.957942-4.818994 11.613991 7.138179 23.050973 11.234685 28.946473 3.019999 4.096506 6.957557 8.756552 9.074446 13.394924 1.239067 3.038061 1.60031 6.256744 2.857439 9.475427 2.839377 7.857055 5.516194 16.617219 9.276744 23.95047 1.957942 3.756936 4.096506 7.698107 6.578251 11.075738 1.444976 1.979617 3.919496 2.857439 4.457749 6.076122-2.478133 3.579927-2.68043 8.937174-4.096505 13.394923-6.415692 20.189921-3.919496 45.198836 5.176625 60.031511 2.839377 4.45775 9.616312 14.294421 18.712433 10.533871 8.016002-3.218683 6.238682-13.394924 8.557868-22.328485 0.538253-2.167463 0.180622-3.579927 1.239067-4.996003v0.361244c2.499808 4.996003 4.996003 9.814997 7.315189 14.832675 5.537869 8.734877 15.154181 17.852673 23.170183 23.928795 4.259065 3.251195 7.654758 8.756552 13.00478 10.736168v-0.538253h-0.339569c-1.083732-1.60031-2.68043-2.319186-4.096506-3.558252-3.197008-3.218683-6.755261-7.156242-9.276743-10.714494-7.477749-9.995619-14.088512-21.089418-19.9515-32.51195-2.857439-5.555931-5.357247-11.613991-7.676433-17.15186-1.058445-2.138564-1.058445-5.357247-2.857439-6.437367-2.68043 3.919496-6.596313 7.315189-8.557868 12.134183-3.37763 7.698107-3.738874 17.15186-4.996003 26.988531-0.700813 0.180622-0.339569 0-0.700813 0.361244-5.696816-1.419688-7.654758-7.315189-9.796935-12.314804-5.339185-12.69411-6.238682-33.064653-1.60031-47.716706 1.239067-3.738874 6.596313-15.533487 4.45775-19.109802-1.083732-3.417367-4.638372-5.357247-6.596314-8.055739-2.319186-3.399305-4.818994-7.676433-6.397629-11.433369-4.277128-9.995619-6.437366-21.089418-11.054063-31.085037-2.138564-4.656434-5.899113-9.475427-8.9155-13.752555-3.399305-4.818994-7.138179-8.214686-9.814996-13.933177-0.877823-1.979617-2.138564-5.1983-0.722488-7.315189 0.339569-1.444976 1.083732-1.979617 2.499808-2.319186 2.297511-1.957942 8.897437 0.538253 11.19856 1.600311 6.596313 2.68043 12.11612 5.1983 17.632315 8.937174 2.499808 1.806219 5.176625 5.176625 8.377246 6.076122h3.756936c5.696816 1.239067 12.11612 0.339569 17.473367 1.957942 9.43569 3.038061 17.993558 7.495811 25.648317 12.332866 23.329131 14.832674 42.579818 35.922093 55.57376 61.11163 2.138564 4.096506 3.038061 7.857055 4.996003 12.134182 3.738874 8.774614 8.377246 17.700951 12.11612 26.269656 3.738874 8.395308 7.315189 16.978463 12.643536 23.95047 2.658755 3.738874 13.366024 5.718491 18.170568 7.676433 3.558252 1.60031 9.096121 3.038061 12.282293 4.996003 6.05806 3.738874 12.094446 8.037677 17.812936 12.155857 2.839377 2.138564 11.754876 6.596313 12.282292 10.17624z m-181.741802-155.302362a27.938603 27.938603 0 0 0-7.297127 0.899497v0.361244h0.33957c1.444976 2.857439 3.937558 4.837056 5.696816 7.336863 1.444976 2.857439 2.68043 5.696816 4.11818 8.57593 0.180622-0.180622 0.339569-0.361244 0.339569-0.361244 2.528707-1.780932 3.756936-4.638372 3.756937-8.937173-1.083732-1.260741-1.239067-2.499808-2.138564-3.756937-1.058445-1.780932-3.37763-2.68043-4.818993-4.096506v-0.021674z" fill="#2c2c2c" p-id="5009"></path><path d="M897.586312 255.98826a30.286688 30.286688 0 0 1 30.250564 30.250563v451.518741a30.286688 30.286688 0 0 1-30.250564 30.250564H126.178879a30.286688 30.286688 0 0 1-30.250563-30.250564V286.238823a30.286688 30.286688 0 0 1 30.250563-30.250563h771.407433m0-31.988147H126.178879A62.23871 62.23871 0 0 0 63.940169 286.238823v451.518741a62.23871 62.23871 0 0 0 62.23871 62.238711h771.407433A62.23871 62.23871 0 0 0 959.825022 737.757564V286.238823a62.23871 62.23871 0 0 0-62.23871-62.23871z" fill="#2c2c2c" p-id="5010"></path></svg>