<?xml version="1.0" standalone="no"?><!DOCTYPE svg PUBLIC "-//W3C//DTD SVG 1.1//EN" "http://www.w3.org/Graphics/SVG/1.1/DTD/svg11.dtd"><svg t="1637047795295" class="icon" viewBox="0 0 1024 1024" version="1.1" xmlns="http://www.w3.org/2000/svg" p-id="3035" width="32" height="32" xmlns:xlink="http://www.w3.org/1999/xlink"><defs><style type="text/css"></style></defs><path d="M915.2 784l-77.44-72.96A371.2 371.2 0 0 0 896 512 384 384 0 0 0 128 512a384 384 0 0 0 384 378.88v-64A320 320 0 0 1 192 512a320 320 0 0 1 640 0 308.48 308.48 0 0 1-41.6 154.88l-71.68-67.2a16 16 0 0 0-26.24 7.68l-64 262.4a16 16 0 0 0 19.84 18.56l256-77.44a16 16 0 0 0 10.88-26.88z" fill="#2c2c2c" p-id="3036"></path></svg>