<?xml version="1.0" standalone="no"?><!DOCTYPE svg PUBLIC "-//W3C//DTD SVG 1.1//EN" "http://www.w3.org/Graphics/SVG/1.1/DTD/svg11.dtd"><svg t="1637028609604" class="icon" viewBox="0 0 1024 1024" version="1.1" xmlns="http://www.w3.org/2000/svg" p-id="36460" xmlns:xlink="http://www.w3.org/1999/xlink" width="32" height="32"><defs><style type="text/css"></style></defs><path d="M60.888 56.888v910.22h910.22V56.888H60.888z m56.888 227.556h227.556v170.668H117.776V284.444z m512 170.668h-227.556V284.444h227.556v170.668z m0 56.888v170.664h-227.556V512h227.556z m-512 0h227.556v170.664H117.776V512z m0 398.224v-170.668h227.556v170.668H117.776z m284.448 0v-170.668h227.556v170.668h-227.556z m512 0h-227.56v-170.668h227.56v170.668z m0-227.56h-227.56V512h227.56v170.664z m0-227.552h-227.56V284.444h227.56v170.668zM117.776 227.556V113.776h796.444v113.776H117.776z" p-id="36461" fill="#2c2c2c"></path></svg>